<svg id="Layer_1" data-name="Layer 1" xmlns="http://www.w3.org/2000/svg" viewBox="0 0 2200 1763"><defs><style>.cls-1,.cls-2,.cls-3{fill:#12214d;}.cls-1{opacity:0.53;}.cls-2{opacity:0.83;}</style></defs><path class="cls-1" d="M2201.11,76.54v916.1l-2.11.19c-76.47,6.58-152.59,23.45-224.88,48h0l-6.55,2.24c-135.67,47-259.87,118.77-378.82,197.83-36.49,24.24-72.48,49.18-108.17,74.29-152,107-301.7,219-470,300.57C700.6,1765.89,333.82,1787.82-1,1700.45V607l4-4.71C176.19,399.24,399,230.83,660.68,158.44c281.64-77.92,577.44-39.18,872-26.91h0c112.74,4.71,225.3,5.53,336.81-5.56q10.18-1,20.38-2.17c107.82-12.33,216-38.12,306-96.14l3.12-2V77.86C2199.7,77.43,2200.41,77,2201.11,76.54Z"/><path class="cls-2" d="M2201.11,76.54v957.05l-2.11-.25c-74.22-8.73-150.51-5.37-224.88,7.45h0c-27.5,4.74-54.74,10.77-81.52,18-129.83,34.87-250.9,94.82-367.64,162.3-35.82,20.69-71.22,42.09-106.35,63.7-149.63,92-297.54,189.2-460.39,255.1-302.43,122.4-648.56,113-955.21-1.92V579q12.9-15.79,26.16-31.35C216.23,328.09,462.07,147,745,90.78c259.62-51.56,523.19,4.69,787.64,40.75h0c113,15.42,226.22,27.15,339.33,25.2q9.56-.16,19.13-.47c101.25-3.32,203.89-19.73,292.07-69q8-4.49,15.79-9.37C2199.7,77.43,2200.41,77,2201.11,76.54Z"/><path class="cls-3" d="M2201.11,76.54v957.05l-2.11-.25V77.86C2199.7,77.43,2200.41,77,2201.11,76.54Z"/></svg>